PathFileType	4	(X/Y/Z)	RBDS028static.trc
DataRate	CameraRate	NumFrames	NumMarkers	Units	OrigDataRate	OrigDataStartFrame	OrigNumFrames
150.000000	150.000000	4	48	mm	150.000000	131	150
Frame#	Time	L.Ankle			L.Ankle.Medial			L.ASIS			L.GTR			L.Heel.Bottom			L.Heel.Lateral			L.Heel.Top			L.HF			L.Iliac.Crest			L.Knee			L.Knee.Medial			L.MT1			L.MT2			L.MT5			L.PSIS			L.Shank.Bottom.Lateral			L.Shank.Bottom.Medial			L.Shank.Top.Lateral			L.Shank.Top.Medial			L.Thigh.Bottom.Lateral			L.Thigh.Bottom.Medial			L.Thigh.Top.Lateral			L.Thigh.Top.Medial			L.TT			R.Ankle			R.Ankle.Medial			R.ASIS			R.GTR			R.Heel.Bottom			R.Heel.Lateral			R.Heel.Top			R.HF			R.Iliac.Crest			R.Knee			R.Knee.Medial			R.MT1			R.MT2			R.MT5			R.PSIS			R.Shank.Bottom.Lateral			R.Shank.Bottom.Medial			R.Shank.Top.Lateral			R.Shank.Top.Medial			R.Thigh.Bottom.Lateral			R.Thigh.Bottom.Medial			R.Thigh.Top.Lateral			R.Thigh.Top.Medial			R.TT			
		X1	Y1	Z1	X2	Y2	Z2	X3	Y3	Z3	X4	Y4	Z4	X5	Y5	Z5	X6	Y6	Z6	X7	Y7	Z7	X8	Y8	Z8	X9	Y9	Z9	X10	Y10	Z10	X11	Y11	Z11	X12	Y12	Z12	X13	Y13	Z13	X14	Y14	Z14	X15	Y15	Z15	X16	Y16	Z16	X17	Y17	Z17	X18	Y18	Z18	X19	Y19	Z19	X20	Y20	Z20	X21	Y21	Z21	X22	Y22	Z22	X23	Y23	Z23	X24	Y24	Z24	X25	Y25	Z25	X26	Y26	Z26	X27	Y27	Z27	X28	Y28	Z28	X29	Y29	Z29	X30	Y30	Z30	X31	Y31	Z31	X32	Y32	Z32	X33	Y33	Z33	X34	Y34	Z34	X35	Y35	Z35	X36	Y36	Z36	X37	Y37	Z37	X38	Y38	Z38	X39	Y39	Z39	X40	Y40	Z40	X41	Y41	Z41	X42	Y42	Z42	X43	Y43	Z43	X44	Y44	Z44	X45	Y45	Z45	X46	Y46	Z46	X47	Y47	Z47	X48	Y48	Z48	

132	0.8733333333333334	712.0384521484375	92.80182647705078	1051.54736328125	730.35595703125	106.24169921875	1133.703369140625	831.861328125	894.236328125	1107.842895507813	786.0782470703125	805.8331298828125	1061.227172851563	638.2136840820313	39.02043533325195	1087.61865234375	668.3499755859375	56.32144546508789	1044.793701171875	649.0972900390625	83.44139862060547	1088.587158203125	744.0579223632813	412.8220520019531	1051.885131835938	767.5806274414063	944.676513671875	1079.02490234375	748.6074829101563	475.6917419433594	1059.318359375	732.2259521484375	452.630126953125	1172.105346679688	855.8947143554688	53.50403594970703	1132.024047851563	858.1278076171875	65.86720275878906	1084.630493164063	823.4122314453125	46.6786994934082	1021.414245605469	676.0657958984375	923.210205078125	1177.76611328125	714.2682495117188	171.2549896240234	1043.947265625	673.9915161132813	169.3040008544922	1075.381591796875	705.6826782226563	250.8571624755859	1032.03955078125	667.2271118164063	254.0227355957031	1068.608764648438	771.5700073242188	574.6088256835938	1040.081420898438	704.5812377929688	576.0284423828125	1068.78466796875	772.1802368164063	684.9703979492188	1040.057006835938	710.2625122070313	684.92431640625	1072.159912109375	789.8731079101563	393.1792602539063	1103.984619140625	706.8290405273438	98.6248779296875	1406.70263671875	726.2024536132813	107.6941070556641	1324.660400390625	825.6088256835938	901.7880859375	1347.73974609375	776.303466796875	815.376220703125	1392.963500976563	636.6156616210938	38.1408576965332	1369.12939453125	666.5891723632813	59.21767044067383	1410.839721679688	646.7255859375	83.38921356201172	1367.608520507813	734.7708129882813	419.8099670410156	1403.390991210938	772.7407836914063	962.1895751953125	1367.44091796875	737.72705078125	482.1706237792969	1396.359375	733.3948364257813	458.5427551269531	1280.107299804688	853.5966186523438	53.90082168579102	1331.652465820313	857.9191284179688	64.34642028808594	1379.957641601563	819.6945190429688	46.67424392700195	1441.614868164063	675.38330078125	926.5132446289063	1270.579223632813	705.0458374023438	178.0974578857422	1414.572875976563	666.386474609375	177.926513671875	1374.200317382813	694.5851440429688	258.3348083496094	1421.80224609375	658.87158203125	257.5516052246094	1381.568725585938	746.650390625	570.1405029296875	1410.759033203125	687.1597290039063	572.253173828125	1369.946411132813	749.1105346679688	680.6672973632813	1410.062866210938	691.8984375	682.1005249023438	1371.664306640625	779.6121215820313	395.6267700195313	1358.131469726563	
133	0.88	712.0455932617188	92.80729675292969	1051.549682617188	730.3616943359375	106.2425003051758	1133.701904296875	831.8268432617188	894.253662109375	1107.847778320313	786.0487060546875	805.8372192382813	1061.214721679688	638.2202758789063	39.02003860473633	1087.623168945313	668.3466796875	56.32855224609375	1044.7958984375	649.1100463867188	83.44441986083984	1088.580078125	744.0762939453125	412.814453125	1051.888549804688	767.5352783203125	944.6810302734375	1079.034912109375	748.6254272460938	475.69384765625	1059.321533203125	732.2711791992188	452.627197265625	1172.098388671875	855.8994750976563	53.51141738891602	1132.0244140625	858.1375122070313	65.86923980712891	1084.628784179688	823.4091186523438	46.67786407470703	1021.415161132813	676.0243530273438	923.1951293945313	1177.75341796875	714.2728271484375	171.2622833251953	1043.949951171875	673.996337890625	169.3130493164063	1075.374877929688	705.6941528320313	250.8559417724609	1032.038818359375	667.2365112304688	254.0274200439453	1068.611083984375	771.587646484375	574.6136474609375	1040.0732421875	704.5941162109375	576.0206909179688	1068.779663085938	772.1796264648438	684.9662475585938	1040.051391601563	710.2562255859375	684.916259765625	1072.141723632813	789.8842163085938	393.1841125488281	1103.991455078125	706.8280029296875	98.62559509277344	1406.69140625	726.201904296875	107.6943130493164	1324.667114257813	825.5533447265625	901.798095703125	1347.744873046875	776.2560424804688	815.3728637695313	1392.939331054688	636.6259765625	38.13948059082031	1369.12353515625	666.5928955078125	59.21515274047852	1410.836059570313	646.7306518554688	83.39112854003906	1367.61962890625	734.7891845703125	419.8073120117188	1403.37939453125	772.6839599609375	962.186767578125	1367.4404296875	737.7432250976563	482.1693115234375	1396.351196289063	733.4327392578125	458.5284729003906	1280.09326171875	853.6002807617188	53.8961067199707	1331.659057617188	857.9150390625	64.3548583984375	1379.9638671875	819.6932373046875	46.66013717651367	1441.6240234375	675.3416137695313	926.4967651367188	1270.563598632813	705.0435180664063	178.0903472900391	1414.565795898438	666.3846435546875	177.9232177734375	1374.193603515625	694.5975341796875	258.3301696777344	1421.802612304688	658.8803100585938	257.5556945800781	1381.565307617188	746.6555786132813	570.1341552734375	1410.735717773438	687.156982421875	572.247314453125	1369.921997070313	749.0968627929688	680.6720581054688	1410.042724609375	691.8875732421875	682.0880126953125	1371.654907226563	779.6400146484375	395.6452026367188	1358.127563476563	
134	0.8866666666666667	712.0424194335938	92.81502532958984	1051.5498046875	730.3513793945313	106.2459182739258	1133.704223632813	831.7931518554688	894.262451171875	1107.841796875	786.046630859375	805.8408813476563	1061.201171875	638.4529418945313	38.90115737915039	1087.649780273438	668.3451538085938	56.32083892822266	1044.799926757813	649.107177734375	83.44170379638672	1088.585815429688	744.0856323242188	412.8106079101563	1051.889526367188	767.4874877929688	944.690185546875	1079.03759765625	748.6441650390625	475.6883850097656	1059.314453125	732.2868041992188	452.6297302246094	1172.096435546875	855.904052734375	53.50608825683594	1132.014770507813	858.1266479492188	65.874755859375	1084.634399414063	823.4154052734375	46.67639541625977	1021.422241210938	675.979736328125	923.17822265625	1177.742431640625	714.270751953125	171.269775390625	1043.939086914063	674.0033569335938	169.3144378662109	1075.381713867188	705.703125	250.8569793701172	1032.040893554688	667.24365234375	254.0257110595703	1068.621948242188	771.6019287109375	574.6162109375	1040.07861328125	704.6123046875	576.0142822265625	1068.766357421875	772.1768798828125	684.9749755859375	1040.0322265625	710.2593383789063	684.9092407226563	1072.1376953125	789.8914794921875	393.1874084472656	1103.996459960938	706.829833984375	98.63157653808594	1406.693603515625	726.1942138671875	107.6967544555664	1324.662841796875	825.5083618164063	901.8031005859375	1347.739501953125	776.2217407226563	815.3612670898438	1392.933959960938	636.6182250976563	38.14071273803711	1369.128173828125	666.58984375	59.21334075927734	1410.838134765625	646.7314453125	83.39189147949219	1367.61767578125	734.8075561523438	419.8055114746094	1403.369750976563	772.62255859375	962.1828002929688	1367.429931640625	737.883544921875	481.888671875	1395.567504882813	733.4495239257813	458.5325012207031	1280.084594726563	853.5895385742188	53.90281295776367	1331.648071289063	857.9136962890625	64.35073852539063	1379.9658203125	819.6854858398438	46.67018127441406	1441.619140625	675.2865600585938	926.4815673828125	1270.544677734375	705.0503540039063	178.0886383056641	1414.558227539063	666.3959350585938	177.9237213134766	1374.192993164063	694.6048583984375	258.3368530273438	1421.784423828125	658.8970336914063	257.5509033203125	1381.55517578125	746.6571044921875	570.141845703125	1410.728759765625	687.1689453125	572.2386474609375	1369.91455078125	749.0809936523438	680.66650390625	1410.035278320313	691.8729858398438	682.0811767578125	1371.637084960938	779.6410522460938	395.6331787109375	1358.0947265625	
135	0.8933333333333334	712.0289916992188	92.80971527099609	1051.5458984375	730.3621215820313	106.2430953979492	1133.699462890625	831.7523193359375	894.2763671875	1107.839599609375	786.0353393554688	805.8451538085938	1061.1982421875	638.2197265625	39.01883316040039	1087.622314453125	668.3471069335938	56.32629013061523	1044.797485351563	649.0968627929688	83.44503784179688	1088.5830078125	744.1000366210938	412.8134460449219	1051.890502929688	767.4382934570313	944.70361328125	1079.042846679688	748.653076171875	475.6908569335938	1059.325561523438	732.3156127929688	452.6231689453125	1172.107055664063	855.8971557617188	53.50629043579102	1132.021362304688	858.1302490234375	65.87474060058594	1084.629516601563	823.41845703125	46.67342376708984	1021.41748046875	675.9315185546875	923.162353515625	1177.721069335938	714.2777099609375	171.2536163330078	1043.950927734375	674.0086669921875	169.3121185302734	1075.382080078125	705.7083129882813	250.8595123291016	1032.045776367188	667.251220703125	254.0278015136719	1068.614868164063	771.6061401367188	574.6155395507813	1040.0771484375	704.6192626953125	576.0140380859375	1068.763061523438	772.1718139648438	684.976318359375	1040.026245117188	710.248046875	684.9069213867188	1072.12158203125	789.9083251953125	393.1791381835938	1103.9990234375	706.8319091796875	98.63336944580078	1406.692993164063	726.1924438476563	107.6851119995117	1324.656005859375	825.4614868164063	901.8117065429688	1347.728271484375	776.174560546875	815.379150390625	1392.929077148438	636.6181030273438	38.13857650756836	1369.121459960938	666.5884399414063	59.22005081176758	1410.838989257813	646.7221069335938	83.39152526855469	1367.614013671875	734.8372802734375	419.8070678710938	1403.360961914063	772.5587158203125	962.184326171875	1367.423583984375	737.8969116210938	481.8909912109375	1395.564819335938	733.4843139648438	458.5325927734375	1280.071411132813	853.600830078125	53.90652847290039	1331.650512695313	857.916259765625	64.35760498046875	1379.961669921875	819.6932373046875	46.6706657409668	1441.612915039063	675.2383422851563	926.4686279296875	1270.527221679688	705.0582275390625	178.0949096679688	1414.555786132813	666.4029541015625	177.9245147705078	1374.184692382813	694.6229858398438	258.3314514160156	1421.774047851563	658.9130859375	257.5524597167969	1381.549072265625	746.6610107421875	570.1349487304688	1410.710571289063	687.1757202148438	572.23095703125	1369.890747070313	749.0675659179688	680.6633911132813	1410.023071289063	691.8662109375	682.0698852539063	1371.616088867188	779.6723022460938	395.6281433105469	1358.0908203125	
